<?xml version="1.0" standalone="no"?>
<!DOCTYPE svg PUBLIC "-//W3C//DTD SVG 1.1//EN" "http://www.w3.org/Graphics/SVG/1.1/DTD/svg11.dtd"><svg
  fill="rgba(255,255,255,0.4)" t="1614612677994" class="icon" viewBox="0 0 1024 1024" version="1.1"
  xmlns="http://www.w3.org/2000/svg" p-id="3066" xmlns:xlink="http://www.w3.org/1999/xlink" width="200" height="200">
  <defs>
    <style type="text/css"></style>
  </defs>
  <path fill="rgba(255,255,255,0.8)"
    d="M512 938.666667C276.352 938.666667 85.333333 747.648 85.333333 512S276.352 85.333333 512 85.333333s426.666667 191.018667 426.666667 426.666667-191.018667 426.666667-426.666667 426.666667z m0-85.333334a341.333333 341.333333 0 1 0 0-682.666666 341.333333 341.333333 0 0 0 0 682.666666zM453.205333 359.04l208.170667 138.752a17.066667 17.066667 0 0 1 0 28.416l-208.213333 138.752a17.066667 17.066667 0 0 1-26.496-14.165333V373.205333a17.066667 17.066667 0 0 1 26.538666-14.165333z"
    p-id="3067"></path>
</svg>